<?xml version="1.0" standalone="no"?>
<!DOCTYPE svg PUBLIC "-//W3C//DTD SVG 20010904//EN"
 "http://www.w3.org/TR/2001/REC-SVG-20010904/DTD/svg10.dtd">
<svg version="1.0" xmlns="http://www.w3.org/2000/svg"
 width="279.000000pt" height="279.000000pt" viewBox="0 0 279.000000 279.000000"
 preserveAspectRatio="xMidYMid meet">
<metadata>
Created by potrace 1.11, written by Peter Selinger 2001-2013
</metadata>
<g transform="translate(0.000000,279.000000) scale(0.100000,-0.100000)"
fill="#000000" stroke="none">
<path d="M550 2604 c-83 -18 -209 -79 -282 -138 -153 -122 -255 -329 -263
-531 -9 -234 61 -404 242 -591 43 -44 93 -97 112 -117 l34 -36 -88 -88 c-98
-98 -119 -135 -109 -191 18 -98 118 -148 204 -102 14 7 61 48 104 92 44 43 82
78 85 77 3 -1 35 -33 71 -72 35 -40 118 -130 185 -201 66 -71 134 -144 150
-161 17 -18 75 -81 130 -141 145 -156 164 -174 224 -201 46 -22 63 -25 131
-21 119 7 127 13 420 328 18 19 88 94 155 165 68 72 142 150 165 175 60 64
277 293 350 370 107 113 166 214 200 341 16 61 18 100 16 224 -2 83 -6 161
-10 175 -3 14 -9 41 -12 60 -9 53 -58 170 -97 231 -123 192 -325 305 -597 335
-85 9 -233 7 -277 -5 -43 -12 -96 -63 -296 -286 -101 -112 -16 -268 131 -240
34 6 88 56 210 193 l57 64 100 -6 c288 -15 453 -143 500 -386 17 -92 13 -258
-8 -316 -34 -94 -41 -102 -271 -345 -88 -93 -213 -225 -371 -394 -26 -27 -107
-113 -180 -190 -72 -77 -148 -157 -167 -178 l-34 -38 -125 133 c-68 73 -149
159 -179 192 -30 32 -73 78 -95 101 -22 23 -85 90 -140 150 -55 60 -108 116
-118 126 -21 20 -17 24 38 34 172 31 370 192 456 372 57 120 73 196 73 343 -2
321 -213 604 -511 686 -78 21 -232 25 -313 8z m248 -285 c70 -22 117 -52 169
-106 169 -174 169 -464 -1 -633 -28 -28 -80 -65 -116 -83 -59 -29 -73 -32
-160 -32 -87 0 -101 3 -160 32 -267 131 -326 506 -114 719 105 104 254 145
382 103z"/>
</g>
</svg>
