<svg xmlns="http://www.w3.org/2000/svg" width="316.985" height="450.222" viewBox="0 0 316.985 450.222">
  <path id="Union_1" data-name="Union 1" d="M-1770.575,459.817l-31.8-15.508a13.265,13.265,0,0,1-6.107-17.738l32.953-67.564-7.949-3.877a13.266,13.266,0,0,1-6.107-17.738l32.953-67.564a26.531,26.531,0,0,1,35.476-12.216l5.644,2.752a48.578,48.578,0,0,0,36.405,17.756l5.644,2.753a26.531,26.531,0,0,1,12.216,35.476l-32.953,67.564a13.266,13.266,0,0,1-17.738,6.108l-7.949-3.877-32.953,67.564a13.266,13.266,0,0,1-11.933,7.454A13.216,13.216,0,0,1-1770.575,459.817Zm253.926-20.983-97.9-15.507a11.727,11.727,0,0,1-9.508-13.086l5.368-33.89,45.187,7.158-1.789,11.3a3.812,3.812,0,0,0,3.169,4.362l22.594,3.578a3.811,3.811,0,0,0,4.361-3.169l1.789-11.3,45.187,7.157-5.368,33.89A11.781,11.781,0,0,1-1515,438.964,10.565,10.565,0,0,1-1516.649,438.835ZM-1617.5,368.821l2.982-18.828a11.728,11.728,0,0,1,13.086-9.508l18.828,2.982,1.789-11.3a11.726,11.726,0,0,1,13.086-9.507l37.655,5.963a11.728,11.728,0,0,1,9.508,13.086l-1.789,11.3,18.828,2.982a11.728,11.728,0,0,1,9.508,13.086L-1497,387.905Zm49.958-22.968,30.124,4.771,1.193-7.531-30.125-4.771Zm-125.886-84.559a35.376,35.376,0,0,1-16.288-47.3,35.375,35.375,0,0,1,47.3-16.287,35.375,35.375,0,0,1,16.288,47.3,35.374,35.374,0,0,1-31.822,19.875A35.243,35.243,0,0,1-1693.427,261.294Zm51.151-110.475a3.789,3.789,0,0,1-2.712-3.163l-5.26-37.431a3.792,3.792,0,0,1,3.278-4.288,4.1,4.1,0,0,1,1.247.02,36.143,36.143,0,0,0,11.159.083C-1620.032,104-1606.536,94.6-1592,92.558a35.267,35.267,0,0,1,14.107.72,3.792,3.792,0,0,1,2.713,3.163l5.26,37.43a3.791,3.791,0,0,1-3.278,4.288,4.04,4.04,0,0,1-1.247-.02,36.171,36.171,0,0,0-11.159-.082c-14.531,2.042-28.03,11.441-42.561,13.483a38.986,38.986,0,0,1-5.435.392A33.815,33.815,0,0,1-1642.276,150.819Zm1.979-10.876.793,5.637a28.757,28.757,0,0,0,7.742.551,7.635,7.635,0,0,0-7.472-6.262A7.636,7.636,0,0,0-1640.3,139.943Zm28.618-29.22c-5.212.733-8.726,6.4-7.846,12.653s5.817,10.733,11.03,10,8.725-6.4,7.846-12.653c-.816-5.8-5.127-10.079-9.91-10.078A8.058,8.058,0,0,0-1611.679,110.723Zm35.735,21.42-.958-6.81a7.609,7.609,0,0,0-5.591,6.715c.974-.053,1.941-.085,2.9-.085A34.472,34.472,0,0,1-1575.943,132.143Zm-67.284-13.053a7.633,7.633,0,0,0,6.545-7.121,41.431,41.431,0,0,1-7.547-.013Zm55.764-21.14a7.609,7.609,0,0,0,7.6,6.336l-.811-5.768a27.992,27.992,0,0,0-5.814-.582Q-1586.971,97.935-1587.463,97.95Zm-127.126-14.235L-1753.9,67.9a21.875,21.875,0,0,1-11.5-29.548c4.733-9.895,16.609-13.783,26.812-9.67l4,1.6,1.484-4.046c3.784-10.339,14.607-16.558,25.127-13.455a21.862,21.862,0,0,1,14.246,28.327l-14.549,39.8a4.774,4.774,0,0,1-4.49,3.162A4.856,4.856,0,0,1-1714.589,83.714Z" transform="translate(1810.361 -11.44)" fill="#fafafa" stroke="rgba(0,0,0,0)" stroke-miterlimit="10" stroke-width="1"/>
</svg>
