<svg xmlns="http://www.w3.org/2000/svg" width="346.21" height="548.408" viewBox="0 0 346.21 548.408">
  <path id="Union_2" data-name="Union 2" d="M-1566.932,573.67a10.753,10.753,0,0,1-2.734-1.837,95.391,95.391,0,0,0-24.582-16.222c-35.1-16.369-78.491-14.968-113.593-31.337a93.067,93.067,0,0,1-30.19-21.874,10,10,0,0,1-1.453-10.9l42.161-90.417a10.007,10.007,0,0,1,13.419-4.78,10.76,10.76,0,0,1,2.734,1.837,95.388,95.388,0,0,0,24.581,16.223c35.1,16.369,78.488,14.967,113.589,31.338a93.134,93.134,0,0,1,30.191,21.871,10.015,10.015,0,0,1,1.455,10.9l-42.161,90.413a9.861,9.861,0,0,1-9.037,5.754A10.366,10.366,0,0,1-1566.932,573.67Zm-11.779-26.883a107.976,107.976,0,0,1,14.359,9.625l7.671-16.45a20.126,20.126,0,0,0-6.15-.964A20.064,20.064,0,0,0-1578.711,546.787Zm-69.509-72.43c-7.044,15.107-2.552,32.117,10.042,37.99s28.509-1.614,35.556-16.727,2.55-32.119-10.041-37.991a21.452,21.452,0,0,0-9.116-2C-1632.14,455.628-1642.8,462.74-1648.219,474.357Zm-76.143,20.43a75.919,75.919,0,0,0,16.347,12.349,20.118,20.118,0,0,0-10-25.965Zm191.388-5.665,6.5-13.934a75.572,75.572,0,0,0-14.223-11.024A20.085,20.085,0,0,0-1532.974,489.122Zm-161.55-58.324a20.149,20.149,0,0,0,24.724-6.354,109.459,109.459,0,0,1-16.688-10.88Zm-117.429,5.855-7.387-22.736,30.315-9.851,2.462,7.579a2.655,2.655,0,0,0,3.347,1.706l15.158-4.925a2.655,2.655,0,0,0,1.706-3.347l-2.462-7.579,30.315-9.85,7.387,22.736a8.17,8.17,0,0,1-5.117,10.041l-65.682,21.342a7.46,7.46,0,0,1-2.31.362A8.215,8.215,0,0,1-1811.954,436.654Zm-13.133-40.42a8.17,8.17,0,0,1,5.117-10.041l12.63-4.1-2.462-7.579a8.171,8.171,0,0,1,5.117-10.041l25.262-8.208a8.171,8.171,0,0,1,10.041,5.117l2.462,7.578,12.632-4.1a8.171,8.171,0,0,1,10.041,5.116l4.1,12.632-80.84,26.267Zm26.211-22.481,1.642,5.053,20.209-6.566-1.642-5.053Zm37.932-86.666-17.639-7.1a9.817,9.817,0,0,1-5.162-13.259,9.348,9.348,0,0,1,12.031-4.339l1.795.72.666-1.815a9.349,9.349,0,0,1,11.275-6.038,9.811,9.811,0,0,1,6.393,12.711l-6.529,17.858a2.143,2.143,0,0,1-2.016,1.419A2.181,2.181,0,0,1-1760.944,287.087Zm108.066-16.675L-1741.5,148.8c-25.735-35.359-16.723-86.649,20.958-110.638,32.875-20.893,75.96-10.248,98.947,21.337l9.025,12.359,12.083-9.392c30.856-24.018,75.152-22.382,100.994,6.764,29.609,33.445,24.134,85.233-10.4,112.12l-118.712,92.473a17.049,17.049,0,0,1-10.509,3.643A16.98,16.98,0,0,1-1652.878,270.411Z" transform="translate(1825.973 -26.736)" fill="#fff" stroke="rgba(0,0,0,0)" stroke-miterlimit="10" stroke-width="1"/>
</svg>
