<svg xmlns="http://www.w3.org/2000/svg" viewBox="0 0 225.01 200.01"><defs><style>.cls-1{fill:#7b8eff;}</style></defs><title>Home SVG 02</title><g id="Layer_2" data-name="Layer 2"><g id="Layer_1-2" data-name="Layer 1"><path class="cls-1" d="M220.31,147.27l-59.06,47.27A25,25,0,0,1,145.63,200H6.25A6.27,6.27,0,0,1,0,193.76v-37.5A6.27,6.27,0,0,1,6.25,150H27.89l18.16-14.73A46,46,0,0,1,75,125h62.5a12.51,12.51,0,0,1,12.34,14.61c-1,6.13-6.79,10.39-13,10.39H106.25a6.25,6.25,0,0,0,0,12.5h46.21A24.93,24.93,0,0,0,168.09,157l36.09-28.87c4.84-3.9,12-4.18,16.64,0A12.49,12.49,0,0,1,220.31,147.27ZM65,53.25c-12.34-13-11.6-34.45,2.19-46.41,12-10.43,30-8.55,41,3.05l4.34,4.53,4.38-4.57c11-11.56,28.94-13.44,41-3,13.83,12,14.53,33.44,2.19,46.41L117.5,97.86a6.8,6.8,0,0,1-10,0Z"/></g></g></svg>