<svg xmlns="http://www.w3.org/2000/svg" viewBox="0 0 410 410"><defs><style>.cls-1{fill:#7b8eff;}.cls-2{fill:#ed0a36;}</style></defs><title>Asset 4</title><g id="Layer_2" data-name="Layer 2"><g id="Layer_1-2" data-name="Layer 1"><path class="cls-1" d="M205,0C92,0,0,92,0,205S92,410,205,410s205-92,205-205S318,0,205,0Zm0,400C97.48,400,10,312.52,10,205S97.48,10,205,10,400,97.48,400,205,312.52,400,205,400Z"/><path class="cls-2" d="M268.58,216.74l-54.8,56.59a8.87,8.87,0,0,1-12.82,0l-54.8-56.59a40.66,40.66,0,0,1,2.8-58.88c15.52-13.22,38.63-10.84,52.85,3.86l5.57,5.74,5.58-5.74c14.25-14.7,37.33-17.08,52.85-3.86A40.64,40.64,0,0,1,268.58,216.74Z"/></g></g></svg>