<svg xmlns="http://www.w3.org/2000/svg" viewBox="0 0 410 410"><defs><style>.cls-1{fill:#7b8eff;}.cls-2{fill:#ed0a36;}</style></defs><title>Asset 8</title><g id="Layer_2" data-name="Layer 2"><g id="Layer_1-2" data-name="Layer 1"><path class="cls-1" d="M205,0C92,0,0,92,0,205S92,410,205,410s205-92,205-205S318,0,205,0Zm0,400C97.48,400,10,312.52,10,205S97.48,10,205,10,400,97.48,400,205,312.52,400,205,400Z"/><path class="cls-2" d="M276.77,251.22c-1.48,5.41-1.48,20.85,0,26.26a8.51,8.51,0,0,1,3.13,6.57v5.63a8.42,8.42,0,0,1-8.44,8.44H156.15a33.76,33.76,0,0,1-33.75-33.75V151.87a33.76,33.76,0,0,1,33.75-33.75H271.46a8.41,8.41,0,0,1,8.44,8.43V244.68A8.37,8.37,0,0,1,276.77,251.22Zm-20.28,1.9H156.15a11.25,11.25,0,1,0,0,22.5H256.49A126.18,126.18,0,0,1,256.49,253.12ZM167.4,172.26a2.12,2.12,0,0,0,2.11,2.11H244a2.12,2.12,0,0,0,2.11-2.11v-7a2.12,2.12,0,0,0-2.11-2.11H169.51a2.12,2.12,0,0,0-2.11,2.11Zm0,22.5a2.12,2.12,0,0,0,2.11,2.11H244a2.12,2.12,0,0,0,2.11-2.11v-7a2.12,2.12,0,0,0-2.11-2.11H169.51a2.12,2.12,0,0,0-2.11,2.11Z"/></g></g></svg>