<svg xmlns="http://www.w3.org/2000/svg" viewBox="0 0 410 410"><defs><style>.cls-1{fill:#7b8eff;}.cls-2{fill:#ed0a36;}</style></defs><title>Asset 6</title><g id="Layer_2" data-name="Layer 2"><g id="Layer_1-2" data-name="Layer 1"><path class="cls-1" d="M205,0C92,0,0,92,0,205S92,410,205,410s205-92,205-205S318,0,205,0Zm0,400C97.48,400,10,312.52,10,205S97.48,10,205,10,400,97.48,400,205,312.52,400,205,400Z"/><path class="cls-2" d="M295.63,158.75v89.84a9,9,0,0,1-9.14,9,9.73,9.73,0,0,1-2.93-.46,86.09,86.09,0,0,0-26.24-3.88c-34.88,0-69.76,17.66-104.64,17.66a83.82,83.82,0,0,1-33-6.37,9,9,0,0,1-5.34-8.34V166.36a9,9,0,0,1,9.14-9,9.78,9.78,0,0,1,2.93.46,85.8,85.8,0,0,0,26.24,3.89c34.88,0,69.76-17.66,104.64-17.66a83.84,83.84,0,0,1,33,6.36A9,9,0,0,1,295.63,158.75ZM128,189.55A18.14,18.14,0,0,0,145.73,175,97.83,97.83,0,0,1,128,172.42ZM146,257a18.12,18.12,0,0,0-18-17.39v13.54A68.32,68.32,0,0,0,146,257Zm81.65-49.51c0-15-10.15-27.19-22.66-27.19s-22.66,12.17-22.66,27.19,10.14,27.19,22.66,27.19S227.66,222.5,227.66,207.48ZM282,161.82a68.4,68.4,0,0,0-15.81-3.59A18.1,18.1,0,0,0,282,175.67Zm0,64.37a18.07,18.07,0,0,0-15.38,13.95A97.65,97.65,0,0,1,282,242.53Z"/></g></g></svg>