<svg xmlns="http://www.w3.org/2000/svg" viewBox="0 0 410 410"><defs><style>.cls-1{fill:#7b8eff;}.cls-2{fill:#ed0a36;}</style></defs><title>Asset 5</title><g id="Layer_2" data-name="Layer 2"><g id="Layer_1-2" data-name="Layer 1"><path class="cls-1" d="M205,0C92,0,0,92,0,205S92,410,205,410s205-92,205-205S318,0,205,0Zm0,400C97.48,400,10,312.52,10,205S97.48,10,205,10,400,97.48,400,205,312.52,400,205,400Z"/><path class="cls-2" d="M232.19,189.35v38.52a6.81,6.81,0,0,1-6.8,6.8h-4.53v38.51a6.8,6.8,0,0,1-6.8,6.8H195.94a6.8,6.8,0,0,1-6.8-6.8V234.67h-4.53a6.81,6.81,0,0,1-6.8-6.8V189.35a13.59,13.59,0,0,1,13.6-13.59h3.21a24.92,24.92,0,0,0,20.76,0h3.21A13.59,13.59,0,0,1,232.19,189.35Zm-9.07-36.25A18.13,18.13,0,1,1,205,135,18.13,18.13,0,0,1,223.12,153.1Z"/><path class="cls-2" d="M158.07,188.32v38.51a6.79,6.79,0,0,1-6.79,6.8h-4.54v38.52a6.79,6.79,0,0,1-6.79,6.79H121.82a6.79,6.79,0,0,1-6.79-6.79V233.63h-4.54a6.79,6.79,0,0,1-6.79-6.8V188.32a13.59,13.59,0,0,1,13.59-13.6h3.22a24.85,24.85,0,0,0,20.75,0h3.22A13.59,13.59,0,0,1,158.07,188.32ZM149,152.07a18.13,18.13,0,1,1-18.12-18.13A18.12,18.12,0,0,1,149,152.07Z"/><path class="cls-2" d="M306.91,188.32v38.51a6.79,6.79,0,0,1-6.8,6.8h-4.53v38.52a6.79,6.79,0,0,1-6.79,6.79H270.66a6.8,6.8,0,0,1-6.8-6.79V233.63h-4.53a6.79,6.79,0,0,1-6.79-6.8V188.32a13.59,13.59,0,0,1,13.59-13.6h3.22a24.85,24.85,0,0,0,20.75,0h3.22A13.6,13.6,0,0,1,306.91,188.32Zm-9.06-36.25a18.13,18.13,0,1,1-18.13-18.13A18.13,18.13,0,0,1,297.85,152.07Z"/></g></g></svg>