<svg xmlns="http://www.w3.org/2000/svg" viewBox="0 0 912.64 243.96"><defs><style>.cls-1{fill:#FFF;}</style></defs><title>Logo Edit</title><g id="Layer_2" data-name="Layer 2"><g id="Layer_1-2" data-name="Layer 1"><path class="cls-1" d="M254.61,23C225.63-3.31,181.88,3.18,180,3.47h0a13.91,13.91,0,0,0-8.12,4.33L148.6,33.06a14,14,0,1,0,20.58,19l19.68-21.32c9.57-.57,32.29-.31,46.95,13,10.91,9.88,15.81,25.91,14.57,47.63a39.82,39.82,0,0,1-10.68,25.06l-93.51,99.34a.68.68,0,0,1-.35.23.65.65,0,0,1-.35-.24L78,143.35c33.42-4.81,59.25-34.95,59.25-71.33,0-39.71-30.78-72-68.62-72S0,32.31,0,72a73.33,73.33,0,0,0,25,55.57h0l14,15-15.9,15.9a14,14,0,1,0,19.79,19.8l15.22-15.21L125,234.82A28.23,28.23,0,0,0,145.78,244h.06a28.24,28.24,0,0,0,20.73-9l93.52-99.33a67.9,67.9,0,0,0,18.25-42.67C280.08,62.34,272.1,38.8,254.61,23ZM28,72c0-24.27,18.22-44,40.62-44s40.62,19.75,40.62,44S91,116,68.62,116,28,96.29,28,72Z"/><path class="cls-1" d="M379.07,52.71h-45.7c-2.92,0-5,.68-6.31,2s-1.92,3.35-1.92,6V169.15q0,4,1.92,5.95c1.28,1.28,3.39,1.91,6.31,1.91h13.71c3,0,5.18-.63,6.4-1.91s1.83-3.26,1.83-5.95V136.62h23.76q47,0,47-41.86Q426.05,52.72,379.07,52.71Zm-2,61.79H355.49V75h21.57q19,0,19,19.74T377.06,114.5Z"/><path class="cls-1" d="M515.8,116.24a145.29,145.29,0,0,0-21-10l-5.12-2a129,129,0,0,1-12.61-5.39,18.36,18.36,0,0,1-6.31-5.12A12.47,12.47,0,0,1,468.46,86q0-14.25,19.74-14.25,15.9,0,27.05,7.31A5.33,5.33,0,0,0,518,80.13c.85,0,1.65-.6,2.38-1.82l7.49-11.89a5,5,0,0,0,.92-2.55c0-1-.92-2.2-2.74-3.66Q511.6,50,484.36,50q-20.66,0-33.27,9.23T438.48,85.8q0,10.42,5.21,17.64A40.73,40.73,0,0,0,457,115.23a144.33,144.33,0,0,0,19.83,9q10,3.84,14.9,6.21a20.93,20.93,0,0,1,7.31,5.49,12.5,12.5,0,0,1,2.47,8q0,7.31-5.12,10.69T480.7,158A67.72,67.72,0,0,1,463,155.63a66.5,66.5,0,0,1-15.54-6.22,5.3,5.3,0,0,0-2.74-1.09c-.85,0-1.64.61-2.37,1.82L434.82,162a5,5,0,0,0-.91,2.55q0,1.65,2.74,3.66,8,5.49,21.11,8.5a121.19,121.19,0,0,0,27.33,3q22.67,0,34.64-9.42t12-25.31q0-10.6-4.11-17.37A34.12,34.12,0,0,0,515.8,116.24Z"/><path class="cls-1" d="M660,55.82a2.89,2.89,0,0,0-1-2.19,3.82,3.82,0,0,0-2.65-.92H634.25a5.82,5.82,0,0,0-3.48.83,8.77,8.77,0,0,0-2.19,2.83L599.7,107,570.82,56.37a8.64,8.64,0,0,0-2.2-2.83,6.19,6.19,0,0,0-3.65-.83H543a3.8,3.8,0,0,0-2.65.92,2.86,2.86,0,0,0-1,2.19,5.49,5.49,0,0,0,.91,2.93l44.24,75.86v34.54q0,4,1.92,5.95c1.28,1.28,3.38,1.91,6.3,1.91h13.71c3,0,5.21-.63,6.49-1.91s1.92-3.26,1.92-5.95V134.79l44.24-76A5.49,5.49,0,0,0,660,55.82Z"/><path class="cls-1" d="M716.5,52.71H703c-3,0-5.2.68-6.48,2s-1.92,3.35-1.92,6v79.88c0,5.85-1.32,10.21-3.93,13.07s-6.8,4.29-12.52,4.29a36.56,36.56,0,0,1-20.84-6.39,5.68,5.68,0,0,0-2.93-1.28c-.85,0-1.77.73-2.74,2.19L645,163.67a5.68,5.68,0,0,0-1.1,3.11,3.3,3.3,0,0,0,1.83,2.92q15.16,10.06,37.11,10.06,20.65,0,31.35-10.61t10.69-28.51V60.76q0-4-1.92-6C721.71,53.39,719.55,52.71,716.5,52.71Z"/><path class="cls-1" d="M814.84,58.2a10.86,10.86,0,0,0-2.74-4.3,6.85,6.85,0,0,0-4.38-1.19H794.37a7.29,7.29,0,0,0-4.48,1.19,10.37,10.37,0,0,0-2.83,4.3L739.72,171a9.33,9.33,0,0,0-.55,2.93q0,3.1,3.29,3.1h22.12a5.16,5.16,0,0,0,5.85-3.83l8.22-21.57h44.42l8.41,21.57a5.15,5.15,0,0,0,5.85,3.83h22.12q3.28,0,3.29-3.1a9.63,9.63,0,0,0-.55-2.93ZM785.6,130.58,801,91.1l15.18,39.48Z"/><path class="cls-1" d="M910.81,54.63q-1.83-1.92-6.4-1.92H890.7c-2.92,0-5,.68-6.3,2s-1.92,3.35-1.92,6V169.15q0,4,1.92,5.95c1.28,1.28,3.38,1.91,6.3,1.91h13.71c3.05,0,5.18-.63,6.4-1.91s1.83-3.26,1.83-5.95V60.76C912.64,58,912,55.91,910.81,54.63Z"/></g></g></svg>